<svg xmlns="http://www.w3.org/2000/svg" version="1.1" xmlns:xlink="http://www.w3.org/1999/xlink" xmlns:svgjs="http://svgjs.dev/svgjs" width="1440" height="900" preserveAspectRatio="none" viewBox="0 0 1440 900"><g mask="url(&quot;#SvgjsMask1116&quot;)" fill="none"><rect width="1440" height="900" x="0" y="0" fill="rgba(255, 255, 255, 1)"></rect><path d="M94.872,1123.824C162.292,1123.062,198.573,1052.253,231.056,993.17C261.849,937.161,293.655,873.545,263.437,817.223C232.073,758.765,161.186,737.479,94.872,739.34C32.052,741.103,-27.733,771.205,-58.066,826.245C-87.457,879.574,-74.583,942.151,-46.749,996.309C-15.627,1056.864,26.792,1124.593,94.872,1123.824" fill="rgba(28, 109, 142, 0.4)" class="triangle-float3"></path><path d="M1254.689,728.863C1332.442,726.581,1402.281,682.055,1439.497,613.749C1475.165,548.285,1468.889,469.462,1431.005,405.255C1393.774,342.155,1327.811,305.099,1254.689,300.53C1171.513,295.332,1080.009,310.041,1035.575,380.545C988.894,454.615,1003.466,551.07,1050.085,625.179C1093.72,694.544,1172.776,731.267,1254.689,728.863" fill="rgba(28, 109, 142, 0.4)" class="triangle-float1"></path><path d="M1001.259,1126.657C1070.257,1127.314,1134.068,1084.566,1163.761,1022.28C1190.221,966.774,1166.015,904.167,1131.624,853.193C1101.888,809.119,1054.341,784.42,1001.259,781.421C941.315,778.035,875.728,786.783,842.616,836.867C806.682,891.218,812.742,962.083,844.03,1019.235C876.698,1078.909,933.231,1126.009,1001.259,1126.657" fill="rgba(28, 109, 142, 0.4)" class="triangle-float2"></path><path d="M490.415,875.596C522.686,874.691,553.342,861.001,570.434,833.613C588.603,804.499,593.509,767.519,576.446,737.744C559.3,707.825,524.881,692.861,490.415,693.98C457.855,695.038,430.532,715.236,413.548,743.035C395.673,772.293,385.025,808.671,402.224,838.331C419.382,867.921,456.223,876.555,490.415,875.596" fill="rgba(28, 109, 142, 0.4)" class="triangle-float1"></path><path d="M654.604,687.921C706.385,688.431,747.006,646.685,770.092,600.332C790.665,559.025,784.637,511.853,762.447,471.391C739.21,429.021,702.905,391.255,654.604,389.749C604.113,388.175,558.304,419.754,534.449,464.283C511.827,506.509,520.315,555.897,542.987,598.096C567.213,643.186,603.42,687.417,654.604,687.921" fill="rgba(28, 109, 142, 0.4)" class="triangle-float2"></path><path d="M11.629,927.172C54.391,929.237,102.102,919.7,122.689,882.163C142.8,845.493,121.055,803.142,99.212,767.476C78.675,733.942,50.924,702.306,11.629,700.816C-29.891,699.241,-68.308,723.925,-88.27,760.366C-107.504,795.478,-102.859,837.919,-82.289,872.266C-62.319,905.61,-27.193,925.298,11.629,927.172" fill="rgba(28, 109, 142, 0.4)" class="triangle-float3"></path></g><defs><mask id="SvgjsMask1116"><rect width="1440" height="900" fill="#ffffff"></rect></mask><style>
                @keyframes float1 {
                    0%{transform: translate(0, 0)}
                    50%{transform: translate(-10px, 0)}
                    100%{transform: translate(0, 0)}
                }

                .triangle-float1 {
                    animation: float1 5s infinite;
                }

                @keyframes float2 {
                    0%{transform: translate(0, 0)}
                    50%{transform: translate(-5px, -5px)}
                    100%{transform: translate(0, 0)}
                }

                .triangle-float2 {
                    animation: float2 4s infinite;
                }

                @keyframes float3 {
                    0%{transform: translate(0, 0)}
                    50%{transform: translate(0, -10px)}
                    100%{transform: translate(0, 0)}
                }

                .triangle-float3 {
                    animation: float3 6s infinite;
                }
            </style></defs></svg>